<?xml version="1.0" encoding="utf-8"?>
<!-- Generator: Adobe Illustrator 17.0.0, SVG Export Plug-In . SVG Version: 6.00 Build 0)  -->
<!DOCTYPE svg PUBLIC "-//W3C//DTD SVG 1.1//EN" "http://www.w3.org/Graphics/SVG/1.1/DTD/svg11.dtd">
<svg version="1.1" id="Layer_1" xmlns="http://www.w3.org/2000/svg" xmlns:xlink="http://www.w3.org/1999/xlink" x="0px" y="0px"
	 width="25.825px" height="25.819px" viewBox="0 0 25.825 25.819" enable-background="new 0 0 25.825 25.819" xml:space="preserve">
<path fill="#BFCE5A" d="M24.093,6.431c1.154,1.978,1.732,4.139,1.732,6.481c0,2.343-0.577,4.503-1.732,6.481
	c-1.155,1.978-2.721,3.545-4.699,4.699c-1.978,1.154-4.139,1.732-6.481,1.732c-2.343,0-4.503-0.577-6.481-1.732
	c-1.978-1.154-3.545-2.721-4.699-4.699C0.577,17.416,0,15.255,0,12.912c0-2.342,0.577-4.503,1.732-6.481
	c1.154-1.978,2.721-3.545,4.699-4.699C8.409,0.577,10.57,0,12.912,0c2.343,0,4.503,0.577,6.481,1.732
	C21.372,2.886,22.938,4.453,24.093,6.431z M21.285,10.945c0.202-0.202,0.303-0.454,0.303-0.757c0-0.314-0.101-0.572-0.303-0.773
	l-1.53-1.513c-0.213-0.213-0.465-0.319-0.757-0.319c-0.292,0-0.544,0.107-0.757,0.319l-6.86,6.843l-3.8-3.8
	c-0.213-0.213-0.465-0.319-0.757-0.319c-0.292,0-0.544,0.107-0.757,0.319l-1.53,1.513c-0.202,0.202-0.303,0.46-0.303,0.773
	c0,0.303,0.101,0.555,0.303,0.757l6.086,6.086c0.213,0.213,0.465,0.319,0.757,0.319c0.303,0,0.56-0.106,0.773-0.319L21.285,10.945
	L21.285,10.945z"/>
</svg>
