<?xml version="1.0" encoding="utf-8"?>
<!-- Generator: Adobe Illustrator 17.0.0, SVG Export Plug-In . SVG Version: 6.00 Build 0)  -->
<!DOCTYPE svg PUBLIC "-//W3C//DTD SVG 1.1//EN" "http://www.w3.org/Graphics/SVG/1.1/DTD/svg11.dtd">
<svg version="1.1" id="Layer_1" xmlns="http://www.w3.org/2000/svg" xmlns:xlink="http://www.w3.org/1999/xlink" x="0px" y="0px"
	 width="60.312px" height="57.859px" viewBox="0 0 60.312 57.859" enable-background="new 0 0 60.312 57.859" xml:space="preserve">
<g>
	<path fill-rule="evenodd" clip-rule="evenodd" fill="#0C81C3" d="M0.067,28.94c0-15.936,12.918-28.854,28.853-28.854
		c15.936,0,28.854,12.918,28.854,28.854c0,15.936-12.918,28.855-28.854,28.855C12.985,57.795,0.067,44.876,0.067,28.94"/>
	<circle fill="none" stroke="#0C81C3" stroke-width="0.1806" stroke-miterlimit="3.864" cx="28.92" cy="28.94" r="28.854"/>
	<path fill-rule="evenodd" clip-rule="evenodd" fill="#FFFFFF" d="M27.432,22.412H12.913c-3.233,0-4.073,2.627-4.073,3.713v0.916
		c0,1.159,0.822,3.401,4.073,3.401h10.782c1.775,0,1.775,2.056,0,2.056H8.821v3.009H24.05c3.139,0,3.98-1.781,3.98-3.481
		c0-1.066-0.02-0.26-0.02-1.288c0-1.42-0.822-3.308-3.961-3.308H13.341c-1.924,0-1.943-2.037,0-2.037H27.45L27.432,22.412z"/>
	<path fill="none" stroke="#FFFFFF" stroke-width="0.1424" stroke-miterlimit="3.864" d="M27.432,22.412H12.913
		c-3.233,0-4.073,2.627-4.073,3.713v0.916c0,1.159,0.822,3.401,4.073,3.401h10.782c1.775,0,1.775,2.056,0,2.056H8.821v3.009H24.05
		c3.139,0,3.98-1.781,3.98-3.481c0-1.066-0.02-0.26-0.02-1.288c0-1.42-0.822-3.308-3.961-3.308H13.341c-1.924,0-1.943-2.037,0-2.037
		H27.45L27.432,22.412z"/>
	<path fill-rule="evenodd" clip-rule="evenodd" fill="#FFFFFF" d="M32.152,25.386v7.103h10.611c2.081,0,2.681-1.116,2.681-2.587
		v-1.937c0-1.472-0.589-2.579-2.681-2.579H32.152z M28.703,17.262l3.438,0.022v5.105h10.641c5.217,0,5.868,3.66,5.868,5.277v2.855
		c0,1.968-0.628,5.04-5.889,5.04H28.703V17.262z"/>
	<path fill="none" stroke="#FFFFFF" stroke-width="0.1424" stroke-miterlimit="3.864" d="M32.152,25.386v7.103h10.611
		c2.081,0,2.681-1.116,2.681-2.587v-1.937c0-1.472-0.589-2.579-2.681-2.579H32.152z M28.703,17.262l3.438,0.022v5.105h10.641
		c5.217,0,5.868,3.66,5.868,5.277v2.855c0,1.968-0.628,5.04-5.889,5.04H28.703V17.262z"/>
	<path fill="#BA8ABE" d="M52.322,15.326c-1.244,0.556-2.159,0.599-2.159,0.599s-0.209-0.49-0.322-1.333
		c0.71-0.256,1.515-0.463,2.422-0.59l0.032-0.005C52.339,14.472,52.344,14.916,52.322,15.326"/>
	<path fill="#FED208" d="M45.167,18.207c0,0,0.644-1.243,2.303-2.399c1.981,2.18,4.085,2.544,4.085,2.544s0.667-1.144,0.767-3.025
		c0.677-0.303,1.451-0.757,2.228-1.44c3.826,0.171,5.763,2.193,5.763,2.193s-1.783,3.603-7.146,4.357
		C47.861,21.181,45.167,18.207,45.167,18.207"/>
	<path fill="#A4C63E" d="M50.726,9.408c0.179-0.381,0.388-0.773,0.634-1.173c2.658-4.338,6.343-4.614,6.343-4.614
		s1.553,3.461-1.117,7.818c-0.635,1.037-1.337,1.834-2.036,2.448c-0.691-0.031-1.442-0.001-2.256,0.111
		c-0.099-1.054-0.393-2.261-1.021-3.572C51.099,10.062,50.916,9.724,50.726,9.408"/>
	<path fill="#26B2E7" d="M47.47,15.807c-0.635-0.698-1.257-1.583-1.793-2.701c-2.225-4.645-0.433-7.929-0.433-7.929
		s3.227,0.496,5.482,4.231c-1.016,2.167-1.042,4.015-0.885,5.184C48.888,14.934,48.104,15.365,47.47,15.807"/>
	<path fill="#F19022" d="M54.55,13.886c-0.777,0.683-1.551,1.137-2.228,1.44c0.022-0.409,0.017-0.854-0.028-1.329
		C53.107,13.885,53.859,13.856,54.55,13.886"/>
	<path fill="#E22632" d="M47.47,15.807c0.635-0.443,1.418-0.873,2.371-1.216c0.114,0.843,0.322,1.333,0.322,1.333
		s0.915-0.043,2.159-0.599c-0.1,1.881-0.767,3.025-0.767,3.025S49.45,17.988,47.47,15.807"/>
	<path fill="#4493D0" d="M50.726,9.408c0.19,0.316,0.374,0.654,0.548,1.017c0.628,1.311,0.922,2.517,1.021,3.572l-0.032,0.005
		c-0.907,0.127-1.712,0.335-2.422,0.59C49.683,13.423,49.709,11.575,50.726,9.408"/>
	<path fill="#FFFFFF" d="M11.008,39.308c0.009,0.158,0.044,0.287,0.108,0.385c0.12,0.185,0.331,0.277,0.634,0.277
		c0.136,0,0.259-0.021,0.371-0.061c0.215-0.079,0.323-0.219,0.323-0.421c0-0.152-0.045-0.26-0.137-0.325
		c-0.093-0.063-0.238-0.117-0.435-0.164l-0.364-0.085c-0.238-0.056-0.406-0.117-0.505-0.183c-0.171-0.116-0.256-0.289-0.256-0.52
		c0-0.249,0.084-0.454,0.252-0.614c0.167-0.16,0.405-0.24,0.712-0.24c0.283,0,0.522,0.07,0.72,0.21
		c0.198,0.141,0.297,0.364,0.297,0.672h-0.354c-0.018-0.148-0.057-0.262-0.116-0.341c-0.109-0.145-0.295-0.217-0.558-0.217
		c-0.212,0-0.364,0.047-0.457,0.14c-0.093,0.093-0.139,0.202-0.139,0.326c0,0.136,0.055,0.236,0.165,0.299
		c0.071,0.04,0.234,0.091,0.488,0.152l0.376,0.089c0.182,0.043,0.322,0.101,0.42,0.176c0.171,0.13,0.257,0.318,0.257,0.565
		c0,0.307-0.109,0.527-0.327,0.659c-0.218,0.132-0.471,0.199-0.759,0.199c-0.337,0-0.599-0.089-0.79-0.265
		c-0.19-0.175-0.284-0.413-0.28-0.713H11.008z"/>
	<path fill="#FFFFFF" d="M15.354,37.431h0.424l1.005,2.773h-0.412l-0.289-0.831h-1.087l-0.301,0.831H14.31L15.354,37.431z
		 M15.977,39.069l-0.427-1.225l-0.443,1.225H15.977z"/>
	<polygon fill="#FFFFFF" points="18.332,37.431 18.711,37.431 18.711,39.877 20.1,39.877 20.1,40.205 18.332,40.205 	"/>
	<path fill="#FFFFFF" d="M23.65,37.635c0.191,0.185,0.298,0.395,0.319,0.631h-0.365c-0.041-0.179-0.123-0.32-0.244-0.424
		c-0.122-0.105-0.293-0.157-0.514-0.157c-0.269,0-0.486,0.096-0.651,0.288c-0.165,0.192-0.248,0.486-0.248,0.882
		c0,0.325,0.075,0.588,0.225,0.789c0.149,0.202,0.371,0.303,0.667,0.303c0.273,0,0.48-0.106,0.623-0.318
		c0.075-0.112,0.132-0.259,0.169-0.442h0.365c-0.032,0.292-0.14,0.537-0.321,0.735c-0.218,0.238-0.511,0.357-0.882,0.357
		c-0.318,0-0.586-0.098-0.803-0.293c-0.285-0.258-0.427-0.656-0.427-1.195c0-0.409,0.107-0.744,0.32-1.006
		c0.232-0.284,0.551-0.427,0.958-0.427C23.189,37.358,23.458,37.45,23.65,37.635"/>
	<path fill="#FFFFFF" d="M27.97,37.829c0.183,0.246,0.275,0.559,0.275,0.942c0,0.414-0.104,0.758-0.315,1.032
		c-0.247,0.322-0.598,0.484-1.054,0.484c-0.427,0-0.762-0.141-1.007-0.423c-0.218-0.272-0.326-0.615-0.326-1.03
		c0-0.375,0.093-0.696,0.279-0.963c0.239-0.342,0.592-0.513,1.061-0.513C27.372,37.358,27.735,37.515,27.97,37.829 M27.64,39.595
		c0.147-0.238,0.222-0.511,0.222-0.819c0-0.326-0.086-0.589-0.256-0.787c-0.171-0.199-0.404-0.298-0.7-0.298
		c-0.287,0-0.521,0.098-0.701,0.295c-0.182,0.197-0.272,0.488-0.272,0.872c0,0.307,0.078,0.566,0.233,0.778
		c0.155,0.211,0.407,0.316,0.756,0.316C27.252,39.951,27.492,39.832,27.64,39.595"/>
	<path fill="#FFFFFF" d="M29.893,37.431h1.198c0.326,0,0.558,0.097,0.697,0.291c0.081,0.115,0.121,0.246,0.121,0.396
		c0,0.175-0.05,0.319-0.149,0.43c-0.052,0.059-0.126,0.114-0.223,0.163c0.142,0.054,0.248,0.115,0.319,0.183
		c0.124,0.121,0.187,0.288,0.187,0.501c0,0.179-0.056,0.34-0.169,0.485c-0.169,0.217-0.436,0.325-0.803,0.325h-1.177V37.431z
		 M30.95,38.603c0.16,0,0.285-0.022,0.373-0.066c0.14-0.069,0.209-0.193,0.209-0.373c0-0.181-0.074-0.303-0.223-0.366
		c-0.084-0.035-0.208-0.053-0.373-0.053h-0.676v0.858H30.95z M31.077,39.883c0.232,0,0.397-0.066,0.496-0.2
		c0.062-0.084,0.093-0.186,0.093-0.306c0-0.201-0.091-0.338-0.272-0.411c-0.096-0.039-0.224-0.059-0.382-0.059h-0.751v0.975H31.077z
		"/>
	<path fill="#FFFFFF" d="M33.733,37.431h1.259c0.207,0,0.378,0.031,0.512,0.093c0.256,0.118,0.383,0.337,0.383,0.655
		c0,0.166-0.034,0.301-0.103,0.407c-0.069,0.106-0.165,0.19-0.289,0.255c0.108,0.044,0.19,0.102,0.246,0.173
		c0.054,0.072,0.085,0.188,0.092,0.35l0.014,0.372c0.004,0.106,0.013,0.184,0.026,0.236c0.023,0.088,0.062,0.145,0.12,0.17v0.063
		H35.53c-0.011-0.024-0.021-0.055-0.029-0.093c-0.007-0.038-0.012-0.111-0.017-0.22L35.46,39.43
		c-0.009-0.181-0.074-0.303-0.195-0.365c-0.069-0.034-0.178-0.051-0.327-0.051h-0.826v1.191h-0.379V37.431z M34.951,38.701
		c0.17,0,0.305-0.035,0.405-0.106c0.098-0.07,0.148-0.197,0.148-0.38c0-0.197-0.069-0.331-0.208-0.403
		c-0.074-0.038-0.173-0.056-0.297-0.056h-0.887v0.945H34.951z"/>
	<path fill="#FFFFFF" d="M38.493,37.431h0.424l1.006,2.773h-0.412l-0.289-0.831h-1.088l-0.3,0.831H37.45L38.493,37.431z
		 M39.116,39.069l-0.427-1.225l-0.443,1.225H39.116z"/>
	<polygon fill="#FFFFFF" points="41.471,37.431 41.912,37.431 43.299,39.673 43.299,37.431 43.656,37.431 43.656,40.205 
		43.235,40.205 41.828,37.96 41.828,40.205 41.471,40.205 	"/>
	<path fill="#FFFFFF" d="M45.486,37.431h1.11c0.377,0,0.669,0.136,0.877,0.406c0.186,0.244,0.278,0.557,0.278,0.938
		c0,0.295-0.055,0.561-0.164,0.799c-0.193,0.421-0.524,0.63-0.994,0.63h-1.106V37.431z M46.521,39.883
		c0.125,0,0.227-0.013,0.308-0.04c0.142-0.049,0.26-0.143,0.352-0.283c0.072-0.112,0.125-0.256,0.157-0.43
		c0.019-0.104,0.028-0.201,0.028-0.29c0-0.343-0.066-0.61-0.201-0.8c-0.134-0.19-0.349-0.285-0.647-0.285h-0.654v2.128H46.521z"/>
	<polygon fill="#FFFFFF" points="9.417,19.097 10.561,19.097 10.561,19.3 9.64,19.3 9.64,19.801 10.45,19.801 10.45,19.997 
		9.64,19.997 9.64,20.749 9.417,20.749 	"/>
	<path fill="#FFFFFF" d="M11.79,19.097h0.252l0.6,1.652h-0.245l-0.173-0.496h-0.647l-0.18,0.496h-0.229L11.79,19.097z
		 M12.161,20.071l-0.254-0.729l-0.264,0.729H12.161z"/>
	<path fill="#FFFFFF" d="M13.503,19.097h0.751c0.124,0,0.226,0.019,0.306,0.055c0.152,0.071,0.229,0.201,0.229,0.391
		c0,0.099-0.021,0.179-0.061,0.243c-0.042,0.063-0.098,0.114-0.172,0.152c0.064,0.026,0.113,0.061,0.146,0.103
		c0.033,0.043,0.051,0.112,0.055,0.208l0.008,0.221c0.002,0.063,0.008,0.11,0.016,0.141c0.013,0.053,0.037,0.086,0.072,0.101v0.037
		h-0.276c-0.007-0.014-0.013-0.032-0.017-0.055c-0.004-0.023-0.008-0.066-0.01-0.13l-0.015-0.276
		c-0.005-0.107-0.044-0.18-0.117-0.217c-0.041-0.02-0.107-0.03-0.195-0.03h-0.494v0.708h-0.224V19.097z M14.229,19.855
		c0.102,0,0.182-0.021,0.241-0.064c0.059-0.042,0.089-0.118,0.089-0.227c0-0.118-0.042-0.198-0.125-0.241
		c-0.044-0.022-0.104-0.034-0.177-0.034h-0.53v0.565H14.229z"/>
	<path fill="#FFFFFF" d="M15.766,19.097h0.321l0.474,1.397l0.47-1.397h0.319v1.652h-0.214v-0.976c0-0.033,0.001-0.089,0.002-0.167
		c0.001-0.078,0.002-0.161,0.002-0.251l-0.47,1.393h-0.222l-0.475-1.393v0.05c0,0.041,0.001,0.102,0.003,0.185
		c0.003,0.083,0.004,0.143,0.004,0.182v0.976h-0.214V19.097z"/>
	<path fill="#FFFFFF" d="M18.804,19.097h0.252l0.599,1.652h-0.245l-0.172-0.496h-0.648l-0.179,0.496h-0.23L18.804,19.097z
		 M19.175,20.071l-0.255-0.729l-0.263,0.729H19.175z"/>
	<path fill="#FFFFFF" d="M21.657,19.218c0.114,0.11,0.178,0.235,0.19,0.375h-0.218c-0.024-0.106-0.072-0.19-0.145-0.253
		c-0.073-0.062-0.174-0.093-0.306-0.093c-0.16,0-0.289,0.057-0.386,0.172c-0.098,0.114-0.148,0.29-0.148,0.526
		c0,0.194,0.044,0.351,0.133,0.471c0.089,0.121,0.221,0.181,0.397,0.181c0.162,0,0.286-0.063,0.371-0.191
		c0.044-0.066,0.078-0.155,0.1-0.264h0.218c-0.019,0.175-0.083,0.32-0.191,0.438c-0.13,0.142-0.305,0.213-0.524,0.213
		c-0.19,0-0.349-0.058-0.478-0.174c-0.169-0.154-0.254-0.392-0.254-0.713c0-0.244,0.063-0.444,0.191-0.6
		c0.138-0.169,0.328-0.254,0.57-0.254C21.383,19.052,21.543,19.107,21.657,19.218"/>
	<rect x="22.836" y="19.099" fill="#FFFFFF" width="0.226" height="1.651"/>
	<path fill="#FFFFFF" d="M24.54,19.097h0.252l0.599,1.652h-0.245l-0.172-0.496h-0.648l-0.179,0.496h-0.23L24.54,19.097z
		 M24.911,20.071l-0.255-0.729l-0.263,0.729H24.911z"/>
	<path fill="#FFFFFF" d="M26.372,20.215c0.005,0.094,0.026,0.17,0.064,0.229c0.071,0.109,0.198,0.164,0.378,0.164
		c0.081,0,0.154-0.012,0.221-0.036c0.129-0.047,0.193-0.129,0.193-0.25c0-0.09-0.027-0.154-0.082-0.193
		c-0.055-0.037-0.141-0.069-0.26-0.097l-0.217-0.051c-0.142-0.033-0.242-0.069-0.301-0.109c-0.102-0.069-0.153-0.172-0.153-0.309
		c0-0.149,0.051-0.27,0.151-0.365c0.1-0.095,0.242-0.143,0.425-0.143c0.169,0,0.312,0.042,0.43,0.125
		c0.119,0.083,0.177,0.217,0.177,0.401h-0.21c-0.011-0.088-0.034-0.156-0.07-0.203c-0.065-0.086-0.177-0.129-0.334-0.129
		c-0.127,0-0.218,0.028-0.274,0.083c-0.056,0.055-0.083,0.12-0.083,0.193c0,0.081,0.033,0.14,0.099,0.178
		c0.042,0.024,0.14,0.054,0.291,0.09l0.225,0.053c0.108,0.025,0.192,0.06,0.251,0.105c0.102,0.077,0.152,0.189,0.152,0.336
		c0,0.183-0.065,0.314-0.194,0.392c-0.13,0.078-0.281,0.117-0.453,0.117c-0.201,0-0.357-0.052-0.471-0.157
		c-0.114-0.104-0.169-0.245-0.167-0.424H26.372z"/>
</g>
</svg>
